<?xml version="1.0" encoding="UTF-8"?>
<!DOCTYPE svg PUBLIC "-//W3C//DTD SVG 1.0//EN" "http://www.w3.org/TR/2001/REC-SVG-20010904/DTD/svg10.dtd">
<!-- Creator: CorelDRAW X8 -->
<svg xmlns="http://www.w3.org/2000/svg" xml:space="preserve" width="2402px" height="1474px" version="1.0" style="shape-rendering:geometricPrecision; text-rendering:geometricPrecision; image-rendering:optimizeQuality; fill-rule:evenodd; clip-rule:evenodd"
viewBox="0 0 1432 879"
 xmlns:xlink="http://www.w3.org/1999/xlink">
 <defs>
  <style type="text/css">
   <![CDATA[
    .str0 {stroke:#3E4095;stroke-width:0.536656}
    .fil1 {fill:#FEFEFE}
    .fil0 {fill:#FEFEFE;fill-rule:nonzero}
   ]]>
  </style>
 </defs>
 <g id="Camada_x0020_1">
  <metadata id="CorelCorpID_0Corel-Layer"/>
  <g id="_448773334656">
   <path class="fil0 str0" d="M0 0l126 0 0 446c0,38 3,33 10,40 6,6 18,9 37,9l6 0 0 123 -33 0c-46,0 -82,-13 -107,-40 -26,-27 -39,-64 -39,-112l0 -466z"/>
   <path class="fil0 str0" d="M823 476l115 -5c-3,45 -20,82 -50,111 -30,28 -66,43 -109,43 -46,0 -84,-16 -116,-48 -31,-31 -47,-70 -47,-116 0,-44 16,-81 48,-112 32,-31 69,-47 114,-47 38,0 73,13 102,37 30,24 48,55 55,93l-117 5c-10,-14 -23,-20 -39,-20 -13,0 -24,4 -32,13 -9,9 -13,20 -13,33 0,13 4,24 13,34 9,9 21,13 34,13 20,0 34,-11 42,-34z"/>
   <path class="fil0 str0" d="M1154 502l0 120c-9,2 -18,3 -26,3 -46,0 -85,-16 -116,-46 -31,-31 -47,-69 -47,-115 0,-45 16,-83 47,-115 32,-31 70,-47 115,-47 50,0 89,15 118,44 29,30 43,70 43,120l0 152 -116 0 0 -143c0,-16 -4,-29 -12,-39 -8,-10 -18,-15 -32,-15 -12,0 -22,5 -31,14 -9,9 -13,19 -13,31 0,13 4,24 12,32 8,8 18,12 30,12 10,0 20,-2 28,-8z"/>
   <polygon class="fil0 str0" points="1432,0 1432,618 1316,618 1316,0 "/>
   <g>
    <path class="fil1 str0" d="M403 302c-131,0 -196,92 -196,205 0,113 196,371 196,371 0,0 197,-258 197,-371 0,-113 -65,-205 -197,-205zm0 275c-58,0 -105,-47 -105,-105 0,-58 47,-105 105,-105 58,0 105,47 105,105 0,58 -47,105 -105,105z"/>
   </g>
   <path class="fil0" d="M402 108l57 2c-4,29 -14,53 -31,69 -17,16 -39,24 -66,24 -27,0 -50,-9 -69,-28 -18,-18 -28,-41 -28,-68 0,-28 10,-51 29,-70 19,-18 42,-28 70,-28 27,0 50,9 68,28 12,12 21,30 27,53l-59 4c-7,-20 -19,-30 -38,-30 -12,0 -21,4 -29,12 -8,8 -11,18 -11,31 0,12 3,22 11,30 7,8 17,12 28,12 12,0 21,-4 28,-11 7,-7 11,-17 13,-30z"/>
   <path id="1" class="fil0" d="M532 64l0 134 -51 0 0 -134 51 0zm-25 -61c7,0 13,3 18,8 5,4 7,10 7,17 0,7 -2,13 -7,17 -5,5 -11,7 -18,7 -8,0 -14,-2 -18,-7 -5,-4 -8,-10 -8,-17 0,-7 3,-13 8,-17 5,-5 11,-8 18,-8z"/>
   <path id="2" class="fil0" d="M645 14l50 0 0 112c0,21 -5,38 -16,51 -6,7 -14,13 -24,18 -9,4 -19,6 -29,6 -21,0 -37,-7 -51,-20 -14,-14 -21,-30 -21,-50 0,-19 7,-35 21,-49 13,-14 29,-21 48,-21 3,0 8,0 14,1l0 55c-4,-3 -9,-4 -13,-4 -5,0 -9,1 -13,5 -4,4 -6,9 -6,14 0,5 2,10 6,14 4,3 9,5 14,5 13,0 20,-9 20,-27l0 -110z"/>
   <path id="3" class="fil0" d="M797 148l0 52c-4,1 -8,1 -12,1 -20,0 -37,-7 -50,-20 -14,-13 -20,-30 -20,-50 0,-20 6,-36 20,-50 14,-13 30,-20 50,-20 22,0 39,6 51,19 13,13 19,30 19,52l0 66 -50 0 0 -62c0,-7 -2,-13 -6,-17 -3,-4 -8,-6 -14,-6 -5,0 -9,1 -13,5 -4,4 -6,9 -6,14 0,6 2,10 5,14 4,4 8,5 14,5 4,0 8,-1 12,-3z"/>
   <path id="4" class="fil0" d="M968 14l50 0 0 112c0,21 -5,38 -16,51 -6,7 -14,13 -24,18 -9,4 -19,6 -29,6 -20,0 -37,-7 -51,-20 -14,-14 -21,-30 -21,-50 0,-19 7,-35 21,-49 13,-14 30,-21 48,-21 3,0 8,0 14,1l0 55c-4,-3 -8,-4 -13,-4 -5,0 -9,1 -13,5 -4,4 -6,9 -6,14 0,5 2,10 6,14 4,3 9,5 14,5 13,0 20,-9 20,-27l0 -110z"/>
   <path id="5" class="fil0" d="M1177 139l-76 0c-1,-4 -2,-7 -2,-10 0,-5 1,-9 2,-14l26 0c-2,-10 -7,-15 -17,-15 -6,0 -11,3 -15,8 -4,6 -6,12 -6,21 0,9 2,16 6,21 3,6 8,8 15,8 5,0 10,-2 14,-7l29 34c-13,11 -28,16 -45,16 -20,0 -37,-7 -50,-20 -14,-13 -21,-30 -21,-50 0,-20 7,-36 21,-50 14,-14 31,-21 51,-21 19,0 36,7 49,20 13,14 20,30 20,50 0,2 0,5 -1,9z"/>
  </g>
 </g>
</svg>
