<?xml version="1.0" encoding="UTF-8"?>
<!DOCTYPE svg PUBLIC "-//W3C//DTD SVG 1.0//EN" "http://www.w3.org/TR/2001/REC-SVG-20010904/DTD/svg10.dtd">
<!-- Creator: CorelDRAW X8 -->
<svg xmlns="http://www.w3.org/2000/svg" xml:space="preserve" width="2402px" height="1474px" version="1.0" style="shape-rendering:geometricPrecision; text-rendering:geometricPrecision; image-rendering:optimizeQuality; fill-rule:evenodd; clip-rule:evenodd"
viewBox="0 0 1214 745"
 xmlns:xlink="http://www.w3.org/1999/xlink">
 <defs>
  <style type="text/css">
   <![CDATA[
    .str0 {stroke:#3E4095;stroke-width:0.454804}
    .fil1 {fill:#373435}
    .fil0 {fill:#373435;fill-rule:nonzero}
   ]]>
  </style>
 </defs>
 <g id="Camada_x0020_1">
  <metadata id="CorelCorpID_0Corel-Layer"/>
  <g id="_448459833792">
   <path class="fil0 str0" d="M0 0l107 0 0 378c0,32 3,28 8,34 5,5 16,8 32,8l5 0 0 104 -28 0c-39,0 -69,-11 -91,-34 -22,-23 -33,-54 -33,-95l0 -395z"/>
   <path class="fil0 str0" d="M697 403l98 -3c-3,37 -17,69 -42,93 -26,24 -57,36 -93,36 -39,0 -71,-13 -98,-40 -26,-27 -40,-60 -40,-98 0,-37 14,-69 41,-95 26,-27 59,-40 96,-40 33,0 62,11 87,31 25,21 41,47 47,79l-100 4c-9,-11 -19,-17 -33,-17 -11,0 -20,4 -27,11 -7,8 -11,17 -11,28 0,12 4,21 11,29 8,8 18,11 29,11 17,0 28,-9 35,-29z"/>
   <path class="fil0 str0" d="M978 426l0 101c-8,2 -15,2 -22,2 -39,0 -72,-13 -98,-39 -27,-26 -40,-58 -40,-97 0,-38 13,-70 40,-97 26,-26 59,-40 97,-40 42,0 76,13 100,38 25,24 37,58 37,101l0 129 -99 0 0 -122c0,-13 -3,-24 -10,-33 -7,-8 -16,-12 -27,-12 -10,0 -19,4 -26,11 -8,8 -12,17 -12,27 0,11 4,20 10,27 7,7 16,10 26,10 9,0 17,-2 24,-6z"/>
   <polygon class="fil0 str0" points="1213,0 1213,524 1115,524 1115,0 "/>
   <g>
    <path class="fil1 str0" d="M342 256c-112,0 -167,78 -167,173 0,96 167,315 167,315 0,0 166,-219 166,-315 0,-95 -55,-173 -166,-173zm0 233c-49,0 -89,-40 -89,-89 0,-49 40,-89 89,-89 49,0 89,40 89,89 0,49 -40,89 -89,89z"/>
   </g>
   <path class="fil0" d="M340 92l49 1c-3,25 -12,45 -26,58 -14,14 -33,21 -56,21 -23,0 -43,-8 -59,-23 -15,-16 -23,-35 -23,-59 0,-23 8,-42 24,-58 16,-16 36,-24 59,-24 23,0 43,8 58,23 11,11 18,26 23,45l-50 4c-6,-17 -16,-26 -32,-26 -10,0 -18,4 -25,10 -6,7 -9,16 -9,27 0,10 3,18 9,25 6,7 14,10 24,10 10,0 18,-3 24,-9 6,-6 9,-14 10,-25z"/>
   <path id="1" class="fil0" d="M451 54l0 114 -43 0 0 -114 43 0zm-22 -51c6,0 11,2 16,6 4,4 6,9 6,15 0,6 -2,10 -6,14 -4,4 -9,6 -16,6 -6,0 -11,-2 -15,-6 -4,-4 -6,-8 -6,-14 0,-6 2,-11 6,-15 5,-4 10,-6 15,-6z"/>
   <path id="2" class="fil0" d="M546 12l43 0 0 95c0,17 -4,32 -14,43 -5,6 -12,11 -20,15 -8,4 -16,5 -25,5 -17,0 -31,-5 -43,-17 -12,-11 -18,-25 -18,-42 0,-16 6,-30 18,-42 12,-12 25,-18 41,-18 3,0 7,1 12,1l0 47c-4,-2 -7,-4 -11,-4 -4,0 -8,2 -11,5 -3,4 -5,7 -5,12 0,4 2,8 5,11 3,4 7,5 12,5 11,0 16,-7 16,-23l0 -93z"/>
   <path id="3" class="fil0" d="M675 125l0 45c-3,0 -6,0 -9,0 -18,0 -32,-5 -43,-16 -12,-12 -17,-26 -17,-43 0,-17 5,-31 17,-42 11,-12 26,-18 42,-18 19,0 33,6 44,17 10,11 16,25 16,44l0 56 -43 0 0 -53c0,-6 -2,-11 -5,-14 -2,-4 -6,-6 -11,-6 -5,0 -9,2 -12,5 -3,4 -5,7 -5,12 0,5 2,9 5,12 3,3 6,4 11,4 4,0 7,-1 10,-3z"/>
   <path id="4" class="fil0" d="M820 12l43 0 0 95c0,17 -5,32 -14,43 -5,6 -12,11 -20,15 -8,4 -16,5 -25,5 -17,0 -31,-5 -43,-17 -12,-11 -18,-25 -18,-42 0,-16 6,-30 18,-42 11,-12 25,-18 41,-18 3,0 6,1 11,1l0 47c-3,-2 -7,-4 -10,-4 -5,0 -8,2 -12,5 -3,4 -4,7 -4,12 0,4 1,8 5,11 3,4 7,5 11,5 12,0 17,-7 17,-23l0 -93z"/>
   <path id="5" class="fil0" d="M998 118l-65 0c-1,-3 -2,-6 -2,-9 0,-4 1,-8 2,-11l22 0c-1,-9 -6,-13 -14,-13 -5,0 -10,2 -13,7 -4,4 -5,10 -5,17 0,8 1,14 5,18 3,5 7,7 12,7 5,0 9,-2 13,-6l24 29c-11,9 -24,13 -38,13 -17,0 -31,-5 -43,-17 -11,-11 -17,-25 -17,-42 0,-17 6,-31 18,-42 11,-12 26,-18 43,-18 16,0 30,6 41,17 12,11 17,25 17,42 0,2 0,4 0,8z"/>
  </g>
 </g>
</svg>
