<?xml version="1.0" encoding="UTF-8"?>
<!DOCTYPE svg PUBLIC "-//W3C//DTD SVG 1.0//EN" "http://www.w3.org/TR/2001/REC-SVG-20010904/DTD/svg10.dtd">
<!-- Creator: CorelDRAW X8 -->
<svg xmlns="http://www.w3.org/2000/svg" xml:space="preserve" width="1911px" height="1185px" version="1.0" style="shape-rendering:geometricPrecision; text-rendering:geometricPrecision; image-rendering:optimizeQuality; fill-rule:evenodd; clip-rule:evenodd"
viewBox="0 0 832 516"
 xmlns:xlink="http://www.w3.org/1999/xlink">
 <defs>
  <style type="text/css">
   <![CDATA[
    .str0 {stroke:#373435;stroke-width:0.391979}
    .fil1 {fill:#373435}
    .fil2 {fill:#373435;fill-rule:nonzero}
    .fil0 {fill:#373435;fill-rule:nonzero}
   ]]>
  </style>
 </defs>
 <g id="Camada_x0020_1">
  <metadata id="CorelCorpID_0Corel-Layer"/>
  <path class="fil0 str0" d="M478 282l67 -2c-2,26 -11,47 -29,64 -17,16 -38,25 -63,25 -27,0 -49,-9 -67,-28 -19,-18 -28,-41 -28,-67 0,-26 9,-47 28,-65 18,-18 40,-27 66,-27 22,0 42,7 60,21 17,14 27,32 32,54l-69 2c-6,-7 -13,-11 -22,-11 -8,0 -14,3 -19,8 -5,5 -7,11 -7,19 0,8 2,14 7,19 6,6 12,8 20,8 11,0 19,-6 24,-20z"/>
  <path class="fil0 str0" d="M671 298l0 69c-6,1 -11,2 -15,2 -27,0 -50,-9 -68,-27 -18,-18 -27,-40 -27,-67 0,-26 9,-48 27,-66 19,-18 41,-27 67,-27 29,0 52,8 69,25 16,17 25,40 25,70l0 88 -68 0 0 -83c0,-10 -2,-17 -7,-23 -4,-6 -11,-8 -18,-8 -7,0 -13,2 -19,7 -5,5 -7,12 -7,19 0,7 2,13 7,18 4,5 10,7 17,7 6,0 12,-1 17,-4z"/>
  <g id="_446792789920">
   <path class="fil0 str0" d="M0 6l73 0 0 259c0,22 2,19 6,23 3,4 11,6 22,6l3 0 0 71 -19 0c-27,0 -48,-8 -62,-23 -15,-16 -23,-38 -23,-65l0 -271z"/>
   <polygon class="fil0 str0" points="832,6 832,365 765,365 765,6 "/>
  </g>
  <g id="_446792792384">
   <path class="fil1" d="M234 181c-76,0 -114,53 -114,119 0,66 114,216 114,216 0,0 115,-150 115,-216 0,-66 -38,-119 -115,-119zm0 160c-33,0 -61,-27 -61,-61 0,-33 28,-61 61,-61 34,0 61,28 61,61 0,34 -27,61 -61,61z"/>
  </g>
  <path class="fil2" d="M200 71l39 1c-3,20 -10,35 -21,46 -12,11 -26,17 -45,17 -18,0 -34,-6 -46,-19 -13,-12 -19,-28 -19,-46 0,-19 6,-34 19,-47 13,-13 29,-19 47,-19 19,0 34,6 46,19 9,8 15,20 18,35l-39 3c-5,-13 -13,-20 -26,-20 -8,0 -14,3 -19,8 -6,5 -8,12 -8,21 0,8 2,15 7,20 6,5 12,8 20,8 8,0 14,-2 19,-7 4,-5 7,-11 8,-20z"/>
  <path id="1" class="fil2" d="M288 41l0 91 -34 0 0 -91 34 0zm-17 -41c5,0 9,2 12,5 3,3 5,7 5,11 0,5 -2,9 -5,12 -3,3 -7,5 -12,5 -5,0 -9,-2 -12,-5 -4,-3 -5,-7 -5,-12 0,-4 1,-8 5,-11 3,-3 7,-5 12,-5z"/>
  <path id="2" class="fil2" d="M364 7l34 0 0 76c0,14 -3,25 -11,34 -4,5 -9,9 -16,12 -6,3 -13,5 -20,5 -13,0 -25,-5 -34,-14 -9,-9 -14,-20 -14,-34 0,-13 4,-24 14,-33 9,-10 20,-14 33,-14 2,0 5,0 9,0l0 38c-3,-2 -6,-3 -9,-3 -3,0 -6,1 -9,4 -2,2 -4,5 -4,9 0,4 2,7 4,9 3,3 6,4 10,4 9,0 13,-6 13,-18l0 -75z"/>
  <path id="3" class="fil2" d="M467 98l0 35c-3,0 -6,1 -8,1 -14,0 -25,-5 -34,-14 -9,-9 -14,-20 -14,-34 0,-13 5,-24 14,-33 9,-10 21,-14 34,-14 15,0 26,4 35,13 8,8 12,20 12,35l0 45 -34 0 0 -42c0,-5 -1,-9 -3,-12 -3,-3 -6,-4 -10,-4 -3,0 -6,1 -9,4 -3,2 -4,5 -4,9 0,4 1,7 4,9 2,3 5,4 9,4 3,0 5,-1 8,-2z"/>
  <path id="4" class="fil2" d="M582 7l35 0 0 76c0,14 -4,25 -11,34 -5,5 -10,9 -17,12 -6,3 -13,5 -20,5 -13,0 -25,-5 -34,-14 -9,-9 -14,-20 -14,-34 0,-13 5,-24 14,-33 9,-10 20,-14 33,-14 2,0 5,0 9,0l0 38c-3,-2 -6,-3 -8,-3 -4,0 -7,1 -9,4 -3,2 -4,5 -4,9 0,4 1,7 4,9 2,3 5,4 9,4 9,0 13,-6 13,-18l0 -75z"/>
  <path id="5" class="fil2" d="M724 92l-52 0c-1,-3 -1,-5 -1,-7 0,-4 1,-7 2,-9l17 0c-1,-7 -5,-11 -11,-11 -5,0 -8,2 -11,6 -2,3 -4,8 -4,14 0,6 1,10 4,14 3,4 6,6 10,6 4,0 7,-2 10,-6l20 24c-10,7 -20,11 -31,11 -13,0 -25,-5 -34,-14 -9,-9 -14,-20 -14,-34 0,-13 5,-24 14,-34 10,-9 21,-13 35,-13 13,0 24,4 33,13 9,9 13,20 13,33 0,2 0,4 0,7z"/>
 </g>
</svg>
