<?xml version="1.0" encoding="UTF-8"?>
<!DOCTYPE svg PUBLIC "-//W3C//DTD SVG 1.1//EN" "http://www.w3.org/Graphics/SVG/1.1/DTD/svg11.dtd">
<!-- Creator: CorelDRAW X8 -->
<svg xmlns="http://www.w3.org/2000/svg" xml:space="preserve" width="271.661mm" height="182.457mm" version="1.1" style="shape-rendering:geometricPrecision; text-rendering:geometricPrecision; image-rendering:optimizeQuality; fill-rule:evenodd; clip-rule:evenodd"
viewBox="0 0 3927 2637"
 xmlns:xlink="http://www.w3.org/1999/xlink">
 <defs>
  <style type="text/css">
   <![CDATA[
    .str0 {stroke:#373435;stroke-width:1.10146}
    .fil1 {fill:#373435}
    .fil2 {fill:#373435;fill-rule:nonzero}
    .fil0 {fill:#373435;fill-rule:nonzero}
   ]]>
  </style>
 </defs>
 <g id="Camada_x0020_1">
  <metadata id="CorelCorpID_0Corel-Layer"/>
  <path class="fil0 str0" d="M1 230l345 0 0 1223c0,103 8,90 25,108 18,18 52,26 103,26l18 0 0 338 -92 0c-126,0 -224,-37 -294,-111 -70,-73 -105,-175 -105,-306l0 -1278z"/>
  <path class="fil0 str0" d="M2257 1534l315 -12c-9,122 -54,223 -136,302 -83,79 -183,118 -301,118 -125,0 -230,-43 -316,-130 -86,-87 -129,-193 -129,-319 0,-120 44,-222 130,-307 87,-85 191,-128 313,-128 106,0 199,34 281,101 81,67 131,152 151,256l-323 12c-27,-37 -63,-55 -105,-55 -36,0 -66,12 -89,36 -24,24 -35,54 -35,90 0,37 12,68 37,93 24,25 55,37 92,37 54,0 92,-31 115,-94z"/>
  <path class="fil0 str0" d="M3165 1606l0 330c-26,4 -50,6 -72,6 -127,0 -233,-42 -318,-126 -85,-84 -128,-189 -128,-316 0,-123 43,-227 129,-313 86,-86 190,-129 314,-129 137,0 245,41 324,121 79,80 119,190 119,329l0 417 -319 0 0 -394c0,-44 -11,-80 -33,-107 -21,-26 -51,-40 -87,-40 -33,0 -62,13 -86,37 -24,24 -37,53 -37,87 0,35 11,64 33,86 22,23 50,34 84,34 27,0 53,-7 77,-22z"/>
  <polygon class="fil0 str0" points="3926,230 3926,1925 3607,1925 3607,230 "/>
  <g id="_991147253296">
   <path class="fil1" d="M1106 1057c-361,0 -539,251 -539,561 0,310 539,1019 539,1019 0,0 538,-709 538,-1019 0,-310 -178,-561 -538,-561zm0 754c-159,0 -288,-128 -288,-287 0,-159 129,-287 288,-287 158,0 287,128 287,287 0,159 -129,287 -287,287z"/>
  </g>
  <polygon class="fil2" points="989,241 736,804 486,241 680,241 738,387 801,241 "/>
  <path id="1" class="fil2" d="M1543 545l-308 0c-4,-16 -6,-30 -6,-43 0,-18 3,-36 9,-53l103 0c-7,-41 -30,-61 -68,-61 -25,0 -46,11 -61,32 -16,22 -24,50 -24,83 0,36 7,64 23,86 15,22 35,33 60,33 20,0 40,-11 59,-31l115 139c-54,43 -114,64 -180,64 -80,0 -147,-27 -202,-81 -55,-54 -82,-121 -82,-201 0,-79 27,-146 83,-201 55,-55 123,-82 203,-82 79,0 145,27 198,80 54,54 81,119 81,198 0,8 -1,20 -3,38z"/>
  <path id="2" class="fil2" d="M1700 241l204 0 0 458c0,95 -23,171 -68,228 -57,71 -137,107 -238,107 -31,0 -66,-6 -104,-19l0 -192c34,16 62,24 86,24 80,0 120,-59 120,-178l0 -428zm97 -241c27,0 51,10 71,29 20,19 30,42 30,69 0,28 -9,51 -28,69 -19,18 -43,27 -73,27 -30,0 -54,-9 -74,-27 -19,-18 -28,-41 -28,-69 0,-27 10,-50 30,-69 20,-19 44,-29 72,-29z"/>
  <path id="3" class="fil2" d="M2324 580l0 210c-17,3 -32,4 -46,4 -81,0 -149,-27 -203,-81 -54,-53 -81,-120 -81,-201 0,-79 27,-145 82,-200 55,-55 121,-82 200,-82 87,0 156,26 207,77 50,51 76,121 76,210l0 266 -204 0 0 -251c0,-29 -7,-52 -21,-69 -13,-16 -32,-25 -56,-25 -21,0 -39,8 -54,23 -16,16 -24,34 -24,56 0,22 7,41 21,55 14,14 32,22 54,22 17,0 34,-5 49,-14z"/>
 </g>
</svg>
