<?xml version="1.0" encoding="UTF-8"?>
<!DOCTYPE svg PUBLIC "-//W3C//DTD SVG 1.0//EN" "http://www.w3.org/TR/2001/REC-SVG-20010904/DTD/svg10.dtd">
<!-- Creator: CorelDRAW X8 -->
<svg xmlns="http://www.w3.org/2000/svg" xml:space="preserve" width="1259px" height="1926px" version="1.0" style="shape-rendering:geometricPrecision; text-rendering:geometricPrecision; image-rendering:optimizeQuality; fill-rule:evenodd; clip-rule:evenodd"
viewBox="0 0 343 524"
 xmlns:xlink="http://www.w3.org/1999/xlink">
 <defs>
  <style type="text/css">
   <![CDATA[
    .str0 {stroke:#373435;stroke-width:0.245013}
    .fil0 {fill:#373435;fill-rule:nonzero}
   ]]>
  </style>
 </defs>
 <g id="Camada_x0020_1">
  <metadata id="CorelCorpID_0Corel-Layer"/>
  <path class="fil0 str0" d="M343 340c-1,-7 -5,-24 -3,-31 3,-7 -13,-53 -13,-53 -3,4 -18,58 -16,73 1,15 -9,27 -20,48 -12,22 -16,14 -21,11 -5,-2 -5,-18 -7,-25 -3,-7 -23,-19 -31,-25 -7,-5 -47,-25 -57,-9 -9,16 1,21 3,25 3,4 32,8 45,10 13,2 15,6 21,13 7,7 6,13 2,20 -4,7 -19,11 -27,6 -9,-4 -13,-22 -25,-25 -6,-1 -39,-1 -45,0 -12,3 -16,21 -25,25 -9,5 -23,1 -27,-6 -5,-7 -5,-13 2,-20 6,-7 8,-11 21,-13 13,-2 42,-6 44,-10 3,-4 13,-9 3,-25 -9,-16 -49,4 -56,9 -8,6 -28,18 -31,25 -2,7 -2,23 -7,25 -6,3 -10,11 -21,-11 -12,-21 -21,-33 -20,-48 2,-15 -14,-69 -16,-73 0,0 -16,46 -13,53 2,7 -2,24 -3,31 0,6 1,27 5,37 5,10 12,9 17,15 5,5 5,13 3,23 -2,11 5,20 10,27 4,7 19,23 24,31 4,9 13,9 17,19 5,11 17,18 25,22 8,3 17,10 35,10 7,0 17,-1 27,0 4,0 13,0 17,0 9,-1 20,0 27,0 18,0 26,-7 35,-10 8,-4 20,-11 25,-22 4,-10 13,-10 17,-19 4,-8 20,-24 24,-31 5,-7 12,-16 10,-27 -2,-10 -2,-18 3,-23 5,-6 12,-5 17,-15 4,-10 5,-31 5,-37z"/>
  <path class="fil0 str0" d="M25 223c0,0 6,-83 13,-98 7,-15 15,-41 44,-46 29,-5 51,-1 57,0 13,2 14,3 32,1 18,-2 22,-6 48,-3 26,2 46,8 60,7 13,0 14,-4 17,3 4,6 17,75 19,84 2,9 4,48 5,52 0,4 15,-31 15,-48 0,-12 -3,-88 -25,-94 0,0 0,-34 -48,-58 -43,-20 -47,-12 -62,-17 -12,-4 -42,-9 -67,-3 0,0 -16,0 -25,2 0,0 -17,1 -23,5 0,0 -36,6 -41,19 0,0 -11,7 -13,14 0,0 -20,16 -17,36 0,0 -2,16 -5,24 0,0 -6,12 11,-5 0,0 -6,20 -7,30 -1,14 -3,85 12,95z"/>
  <path class="fil0 str0" d="M293 234c-3,17 -8,30 -15,33 -6,3 -16,7 -32,7 -16,0 -30,-1 -37,-7 -6,-7 -15,-26 -14,-38 2,-11 5,-15 21,-20 16,-4 30,-4 30,-4 0,0 35,-3 42,3 6,4 7,9 5,26zm-157 33c-7,6 -21,7 -37,7 -16,0 -26,-4 -32,-7 -7,-3 -12,-16 -15,-33 -3,-17 -1,-22 5,-26 7,-6 42,-3 42,-3 0,0 13,0 30,4 16,5 19,9 21,20 1,12 -8,31 -14,38zm164 -75c-4,0 -42,1 -51,2 -12,1 -42,6 -51,8 -8,3 -26,5 -26,5 0,0 -17,-2 -25,-5 -9,-2 -39,-7 -51,-8 -9,-1 -47,-2 -51,-2 -5,0 -12,4 -20,8 0,0 2,15 5,18 0,0 4,1 6,4 1,2 6,18 7,24 2,6 7,20 13,24 5,4 19,11 39,11 19,0 39,3 53,-19 14,-22 13,-33 17,-35 4,-2 7,-2 7,-2 0,0 4,0 8,2 4,2 3,13 17,35 13,22 33,19 53,19 20,0 34,-7 39,-11 6,-4 10,-18 12,-24 2,-6 7,-22 8,-24 2,-3 6,-4 6,-4 3,-3 4,-18 4,-18 -7,-4 -14,-8 -19,-8z"/>
 </g>
</svg>
