<?xml version="1.0" encoding="UTF-8"?>
<!DOCTYPE svg PUBLIC "-//W3C//DTD SVG 1.0//EN" "http://www.w3.org/TR/2001/REC-SVG-20010904/DTD/svg10.dtd">
<!-- Creator: CorelDRAW X8 -->
<svg xmlns="http://www.w3.org/2000/svg" xml:space="preserve" width="1760px" height="1872px" version="1.0" style="shape-rendering:geometricPrecision; text-rendering:geometricPrecision; image-rendering:optimizeQuality; fill-rule:evenodd; clip-rule:evenodd"
viewBox="0 0 660 702"
 xmlns:xlink="http://www.w3.org/1999/xlink">
 <defs>
  <style type="text/css">
   <![CDATA[
    .fil0 {fill:#373435;fill-rule:nonzero}
   ]]>
  </style>
 </defs>
 <g id="Camada_x0020_1">
  <metadata id="CorelCorpID_0Corel-Layer"/>
  <path class="fil0" d="M140 366l143 -38c6,-5 3,-14 4,-26l25 -201c1,-17 -10,-33 -27,-37 -33,-8 -88,-16 -141,-3 -54,14 -103,49 -131,72 -14,11 -17,31 -8,46l119 167c7,10 9,19 16,20z"/>
  <path class="fil0" d="M366 648l-51 -195 0 0 -29 -106 -8 3 28 106 -118 31 -28 -106 -9 2 29 106 0 0 51 195c5,17 39,24 76,14 38,-10 64,-33 59,-50z"/>
  <path class="fil0" d="M384 264l0 387c0,23 9,43 21,43l29 0c12,0 21,-20 21,-43l0 -387 -71 0z"/>
  <polygon class="fil0" points="448,170 448,258 391,258 391,170 385,170 385,270 454,270 454,170 "/>
  <path class="fil0" d="M400 166l39 0c9,0 17,-6 18,-16l23 -112c2,-10 -2,-19 -10,-24 -11,-6 -28,-14 -50,-14 -22,0 -40,7 -50,14 -8,4 -12,14 -10,23l22 113c2,9 9,16 18,16z"/>
  <path class="fil0" d="M548 315c0,0 0,1 0,2l-76 339c-3,17 6,34 22,38l26 5c15,4 31,-7 35,-24l76 -340c0,-1 0,-1 0,-2l-83 -18z"/>
  <polygon class="fil0" points="634,284 619,350 552,335 567,270 559,268 542,342 625,361 642,286 "/>
  <path class="fil0" d="M572 264l57 13c6,1 13,-3 14,-10l17 -75c2,-10 -6,-18 -15,-15l-65 23c-4,1 -7,5 -8,10l-9 39c-2,7 2,14 9,15z"/>
 </g>
</svg>
