<?xml version="1.0" encoding="UTF-8"?>
<!DOCTYPE svg PUBLIC "-//W3C//DTD SVG 1.0//EN" "http://www.w3.org/TR/2001/REC-SVG-20010904/DTD/svg10.dtd">
<!-- Creator: CorelDRAW X8 -->
<svg xmlns="http://www.w3.org/2000/svg" xml:space="preserve" width="2026px" height="1520px" version="1.0" style="shape-rendering:geometricPrecision; text-rendering:geometricPrecision; image-rendering:optimizeQuality; fill-rule:evenodd; clip-rule:evenodd"
viewBox="0 0 923 692"
 xmlns:xlink="http://www.w3.org/1999/xlink">
 <defs>
  <style type="text/css">
   <![CDATA[
    .str0 {stroke:#373435;stroke-width:0.40994}
    .fil0 {fill:#373435}
   ]]>
  </style>
 </defs>
 <g id="Camada_x0020_1">
  <metadata id="CorelCorpID_0Corel-Layer"/>
  <path class="fil0 str0" d="M460 0c-15,0 -71,8 -41,129 0,0 26,38 -44,43 0,0 -72,-43 -115,38 0,0 -63,5 -66,56 0,0 -16,12 -34,21 -19,9 -38,57 -33,76 4,19 5,45 -2,65 -7,20 -8,55 3,65 11,9 5,15 16,22 11,6 47,-13 36,-19 -11,-7 -11,-7 -11,-7 0,0 18,-25 11,-35 -8,-10 -30,-22 -21,-35 9,-13 53,-38 49,-83 0,0 70,-35 93,-49 22,-14 72,170 53,197 -20,29 -37,147 -40,160 -4,12 -9,48 -9,48l136 0c0,0 12,-20 19,-40 7,20 19,40 19,40l136 0c0,0 -5,-36 -8,-48 -4,-13 -21,-131 -40,-160 -20,-27 30,-211 53,-197 22,14 92,49 92,49 -3,45 41,70 50,83 9,13 -14,25 -21,35 -8,10 11,35 11,35 0,0 0,0 -11,7 -11,6 24,25 35,19 11,-7 6,-13 17,-22 11,-10 10,-45 2,-65 -7,-20 -6,-46 -1,-65 4,-19 -15,-67 -33,-76 -18,-9 -35,-21 -35,-21 -3,-51 -65,-56 -65,-56 -43,-81 -115,-38 -115,-38 -70,-5 -44,-43 -44,-43 30,-121 -26,-129 -42,-129zm-375 468c-1,0 -1,0 -1,0l0 -69c-1,0 -34,0 -35,0 0,1 0,170 0,170 1,0 34,0 35,0l0 -69c0,0 0,0 1,0l20 0c4,0 6,-3 6,-6l0 -20c0,-3 -2,-6 -6,-6l-20 0zm730 0c-3,0 -5,3 -5,6l0 20c0,3 2,6 5,6l21 0c1,0 2,-1 3,-1l0 70c1,0 34,0 35,0 0,-1 0,-170 0,-170 -1,0 -34,0 -35,0l0 70c-1,0 -2,-1 -3,-1l-21 0zm-226 0c-3,0 -6,3 -6,6l0 20c0,3 3,6 6,6l134 0c3,0 6,-3 6,-6l0 -20c0,-3 -3,-6 -6,-6l-134 0zm-393 0c-3,0 -6,3 -6,6l0 20c0,3 3,6 6,6l134 0c3,0 5,-3 5,-6l0 -20c0,-3 -2,-6 -5,-6l-134 0zm683 -43c0,1 0,117 0,118 1,0 27,0 28,0 0,-1 0,-117 0,-118 -1,0 -27,0 -28,0zm33 33c0,1 0,51 0,52 1,0 10,0 11,0 0,-2 0,-51 0,-52 -1,0 -10,0 -11,0zm-868 85c0,-1 0,-117 0,-118 -1,0 -27,0 -28,0 0,1 0,117 0,118 1,0 27,0 28,0zm-33 -33c0,-1 0,-51 0,-52 -1,0 -10,0 -11,0 0,2 0,51 0,52 1,0 10,0 11,0z"/>
 </g>
</svg>
