<?xml version="1.0" encoding="UTF-8"?>
<!DOCTYPE svg PUBLIC "-//W3C//DTD SVG 1.0//EN" "http://www.w3.org/TR/2001/REC-SVG-20010904/DTD/svg10.dtd">
<!-- Creator: CorelDRAW X8 -->
<svg xmlns="http://www.w3.org/2000/svg" xml:space="preserve" width="1399px" height="1456px" version="1.0" style="shape-rendering:geometricPrecision; text-rendering:geometricPrecision; image-rendering:optimizeQuality; fill-rule:evenodd; clip-rule:evenodd"
viewBox="0 0 538 560"
 xmlns:xlink="http://www.w3.org/1999/xlink">
 <defs>
  <style type="text/css">
   <![CDATA[
    .fil0 {fill:#EE396A;fill-rule:nonzero}
   ]]>
  </style>
 </defs>
 <g id="Camada_x0020_1">
  <metadata id="CorelCorpID_0Corel-Layer"/>
  <path class="fil0" d="M346 403c-23,29 -35,48 -109,31 -75,-16 -27,-42 -5,-63 22,-21 146,-259 169,-303 25,-47 30,-59 55,-51 15,-1 -52,303 -110,386zm173 -337c-27,-45 -52,-67 -64,-66 -13,1 -28,-5 -65,74 -37,79 -119,230 -157,285 -12,15 -145,104 -206,142 -20,12 -33,28 -24,43 -5,4 -6,11 13,14 20,3 136,5 271,-18 84,-14 84,-45 88,-74 5,-29 6,-111 134,-261 49,-74 25,-114 10,-139z"/>
  <path class="fil0" d="M453 413c6,-1 11,-2 11,-2 4,-103 28,-158 49,-205 -8,8 -44,55 -44,55 -3,11 -12,115 -16,152z"/>
  <path class="fil0" d="M443 298c4,24 -4,109 -4,109 2,3 11,6 11,6 5,-34 10,-120 15,-148 -6,7 -22,33 -22,33z"/>
 </g>
</svg>
